<svg xmlns="http://www.w3.org/2000/svg" viewBox="0 0 65.4 77.53"><defs><style>.cls-1{fill:#cbbc8f;}</style></defs><g id="Layer_2" data-name="Layer 2"><g id="Layer_1-2" data-name="Layer 1"><path class="cls-1" d="M29.71,66.06c-.07,4.25-.6,8.16-4.75,10a14.73,14.73,0,0,1-13.91-.56c-2.3-1.34-3-3.73-3.53-6.1C6,62,10.06,52.45,16.45,48.17a3.15,3.15,0,0,1,4.13,0C27,52.68,29.45,59,29.71,66.06ZM10.83,64.93c-.61,6.59,1.72,9.28,7.69,9.24a21.69,21.69,0,0,0,2.76-.35c2.81-.36,4.41-1.86,4.79-4.63.91-6.68-.86-12.45-5.9-17.23-1.23-1.17-2.09-1.14-3.31,0A18,18,0,0,0,10.83,64.93Z"/><path class="cls-1" d="M65.39,19.77c.09,5.53-1.11,6.77-7.17,6.52a22.94,22.94,0,0,1-18-9.63c-2.79-3.72-2.51-7.16.43-10.72a27.08,27.08,0,0,1,1.8-2.06q8.15-7.89,16,.29C62.64,8.56,65.35,13.61,65.39,19.77ZM62,20.24A19,19,0,0,0,55.16,5.69c-3.81-3.34-6.1-3.29-9.9.09A19.67,19.67,0,0,0,43,8.26a4.89,4.89,0,0,0-.09,6.62c3.92,4.89,8.91,7.88,15.47,8.14C61,23.12,62.72,22.7,62,20.24Z"/><path class="cls-1" d="M11.71,38.11c-4.09.08-8.08-.45-10.1-4.38a13.84,13.84,0,0,1,.16-13.26C3.22,17.73,6.09,16.72,9,16.53c7.89-.52,14.82,1.56,20.25,7.53,2.11,2.32,2,4.2-.07,6.5C24.52,35.72,18.61,37.94,11.71,38.11Zm.92-18.32c-5.43-.27-7.54.65-8.6,3.74A12.31,12.31,0,0,0,4,30.91a4.68,4.68,0,0,0,4,3.61,20.17,20.17,0,0,0,18.08-5.41c1.5-1.4,1.22-2.44-.1-3.74A18.91,18.91,0,0,0,12.63,19.79Z"/><path class="cls-1" d="M35.84,43.12c0-5.65.72-6.32,6.65-6.32,7.62,0,13.46,3.49,18.1,9,3.16,3.75,2.93,7.78-.3,11.51a25.92,25.92,0,0,1-4,3.77A8.57,8.57,0,0,1,46,61.48C40.05,57.86,35.85,50.25,35.84,43.12ZM39,42.53a19.67,19.67,0,0,0,5.43,13.32c5,5.32,8.35,5.25,13.09-.35,2.61-3.09,2.66-5.19,0-8.26a20.55,20.55,0,0,0-15-7.34C40.15,39.76,38.65,40.44,39,42.53Z"/><path class="cls-1" d="M55.75,55.07c0-1.15-.44-2-1.34-1.81a5,5,0,0,0-4.15,3,1.27,1.27,0,0,0,1.37,1.59A5,5,0,0,0,55.75,55.07Zm-6.65-.25a1.69,1.69,0,0,0-1.7-1.6,1.36,1.36,0,0,0-1.58,1.44,1.66,1.66,0,0,0,1.69,1.78C48.4,56.51,49.08,56,49.1,54.82Z"/><path class="cls-1" d="M55.75,55.07a5,5,0,0,1-4.12,2.81,1.27,1.27,0,0,1-1.37-1.59,5,5,0,0,1,4.15-3C55.31,53.11,55.8,53.92,55.75,55.07Z"/><path class="cls-1" d="M49.1,54.82c0,1.2-.7,1.69-1.59,1.62a1.66,1.66,0,0,1-1.69-1.78,1.36,1.36,0,0,1,1.58-1.44A1.69,1.69,0,0,1,49.1,54.82Z"/></g></g></svg>