<svg xmlns="http://www.w3.org/2000/svg" viewBox="0 0 75.73 77.53"><defs><style>.cls-1{fill:#cbbc8f;}</style></defs><g id="Layer_2" data-name="Layer 2"><g id="Layer_1-2" data-name="Layer 1"><path class="cls-1" d="M75.73,13.71c-1.32,10.72-4.62,20.34-15.39,25.76a15.21,15.21,0,0,0-6.92,6.67,25.56,25.56,0,0,1-11.83,11.5,17,17,0,0,0-7.34,7.5c-3.46,6.22-8.59,10.48-15.81,12-4.83,1-9.23.12-12.83-3.39C3.78,72,1.45,70.43.32,68.29-1,65.7,2.31,64.05,3,61.71,5.12,54,10.1,48.58,17.5,45.09a11.66,11.66,0,0,0,5.16-5.47,26.58,26.58,0,0,1,12.26-11.9,13.6,13.6,0,0,0,6.42-6.33C44.5,14.85,50,11.07,56.76,8.78,61.83,7.06,67,5.74,70.13.83,71.3-1,72.6.53,73.22,2A28.88,28.88,0,0,1,75.73,13.71ZM58.09,37a23.57,23.57,0,0,0,4.68-2.9C71.21,26.23,73.88,16.71,71.07,5,67.36,8.94,63,10.21,58.69,11.58c-6.44,2-11.63,5.47-14.63,11.63-1.74,3.58-4.75,6-8.33,7.78A21.42,21.42,0,0,0,26,40.4a19.68,19.68,0,0,1-9,8.77A18.92,18.92,0,0,0,7,60.47a45.58,45.58,0,0,1-2.5,5.47c-.29.61-.8,1-.3,1.87A13.34,13.34,0,0,0,17.6,74c6-1.08,10.26-4.55,13.22-9.52,2.26-3.8,4.65-7.36,8.83-9.39"/><path class="cls-1" d="M29.61,58.47a7.36,7.36,0,0,0-8.84-7.34,14,14,0,0,0-11.34,11,6.94,6.94,0,0,0,5.4,8.25C21.33,72.1,29.52,65.49,29.61,58.47ZM66.88,22a7.38,7.38,0,0,0-8.66-7.2A14.07,14.07,0,0,0,46.65,26.22a7,7,0,0,0,5.45,7.91C58.66,35.88,67,29.08,66.88,22ZM48.25,40.38a7.38,7.38,0,0,0-9-7.35A14.07,14.07,0,0,0,28.06,44.11a6.9,6.9,0,0,0,5.16,8.08C39.77,54.07,48.14,47.49,48.25,40.38Z"/><path class="cls-1" d="M29.61,58.47c-.09,7-8.28,13.63-14.78,11.9a6.94,6.94,0,0,1-5.4-8.25,14,14,0,0,1,11.34-11A7.36,7.36,0,0,1,29.61,58.47ZM21.83,62.1c.67.87.41,1.75-.63,3a5.39,5.39,0,0,0,4.35-4.34c.93-2,1-4-.72-5.52s-3.63-1-5.54-.23a10,10,0,0,0-6.14,6.33c-.59,1.71-.83,3.6.68,5.08s3.24.87,5.33.79c-1.08-1.06-2-.38-2.72-.69-1.23-.51-1.64-1.89-.7-2.31C17.67,63.34,19.26,61.24,21.83,62.1Z"/><path class="cls-1" d="M66.88,22c.08,7-8.22,13.85-14.78,12.1a7,7,0,0,1-5.45-7.91A14.07,14.07,0,0,1,58.22,14.83,7.38,7.38,0,0,1,66.88,22Zm-12.14,9c3.9,0,8.56-4.31,8.62-8.7,0-2.89-1.38-4.29-4.27-4.21-4.44.12-9,4.77-9,9.11C50.09,29.9,51.4,31.11,54.74,31.06Z"/><path class="cls-1" d="M48.25,40.38c-.11,7.11-8.48,13.69-15,11.81a6.9,6.9,0,0,1-5.16-8.08A14.07,14.07,0,0,1,39.22,33,7.38,7.38,0,0,1,48.25,40.38ZM35.63,49.2c4.66,0,9.18-4.65,9.09-9.21,0-2.51-1.37-3.61-3.82-3.7-4.55-.17-9.42,4.44-9.43,8.93C31.46,48,32.77,49.21,35.63,49.2Z"/><path class="cls-1" d="M25.55,60.74a5.39,5.39,0,0,1-4.35,4.34c1-1.23,1.3-2.11.63-3l.45-.44c1.34.41,2.12-.37,2.85-1.25Z"/></g></g></svg>