<svg xmlns="http://www.w3.org/2000/svg" viewBox="0 0 47.07 77.13"><defs><style>.cls-1{fill:#cbbc8f;}</style></defs><g id="Layer_2" data-name="Layer 2"><g id="Layer_1-2" data-name="Layer 1"><path class="cls-1" d="M47,44.63c-.34,6-.91,12-2.92,17.76-3.29,9.5-10.52,14.76-20.56,14.74S6,72,3.26,62.49c-5-17.42-5-34.51,5.47-50.38A35.11,35.11,0,0,1,21.3.71a4.13,4.13,0,0,1,4.55,0C36.5,6.55,42.39,15.76,45.29,27A59.81,59.81,0,0,1,47,44.63ZM34.22,70.4c3.59-2.14,5.46-5.41,6.69-9.08,3.36-10.07,3.49-20.39,1.75-30.68C41.07,21.21,36.92,12.76,29,6.7,23.3,2.31,24.09,2.05,20,8.09c-4,5.85-5.74,12.62-6.65,19.53-1.64,12.43-1.85,24.83,1.46,37.09a20.15,20.15,0,0,0,1,2.82C17.32,71,19.57,74,23.87,73.87s6.39-3.32,7.79-6.82c2.16-5.39,2.81-11.08,3.13-16.81.08-1.42,0-3.24,2-3.06,1.71.16,1.4,1.85,1.33,3.19A61.5,61.5,0,0,1,34.22,70.4ZM13.11,71a93.5,93.5,0,0,1,1-59.61c-.87,0-1,.57-1.33.95-6,7.47-8.58,16.14-9,25.44-.42,8.36-.15,16.66,3,24.64A18.55,18.55,0,0,0,13.11,71Z"/><path class="cls-1" d="M37,44.54c-1.63.05-1.92-1-2-2s.4-2.1,1.63-2.14,1.75.93,1.75,2S38.1,44.41,37,44.54Z"/></g></g></svg>