<svg xmlns="http://www.w3.org/2000/svg" viewBox="0 0 111.72 89.38"><defs><style>.cls-1{fill:#cbbc8f;}.cls-2{fill:#cebc8a;}</style></defs><g id="Layer_2" data-name="Layer 2"><g id="Layer_1-2" data-name="Layer 1"><g id="eUWtws.tif"><path class="cls-1" d="M78,40.45l.5-.5C78.58,40.38,78.41,40.55,78,40.45Z"/><path class="cls-2" d="M111.6,41.15c0,8.87-.06,17.75.05,26.62,0,1.79-.56,2.46-2.26,2.75q-17.23,3-34.44,6.12c-10.09,1.82-20.17,3.68-30.26,5.49Q24.31,85.78,3.9,89.36c-1.3.23-3.81-2-3.83-3.51,0-3.4,0-6.8,0-10.2C.06,61.8.12,48,0,34.11,0,32,.67,31,2.55,30.05,20,21.15,37.42,12.31,54.62,3,60,.14,65.31-.3,70.93.16c5,.41,10.12.24,15,1.4,6.47,1.52,13.2,2,19.33,4.93,4.32,2.08,6.63,4.87,6.39,10C111.33,24.72,111.6,32.94,111.6,41.15ZM3.57,78c0,1.83,0,3.65,0,5.47,0,1.36.49,1.7,1.82,1.46q19.75-3.59,39.54-7.09L80.07,71.6c8.55-1.52,17.09-3.06,25.64-4.52,1.8-.3,2.5-1,2.38-2.93a80.3,80.3,0,0,1,0-8.21c.07-1.73-.47-2.47-2.27-2.13q-4,.77-8,1.45L48.12,63.65C34.91,65.88,21.7,68.08,8.5,70.34c-4.95.85-4.94.91-4.94,6.21C3.56,77.05,3.56,77.54,3.57,78Zm0-17.17c0,1.58,0,3.15,0,4.73,0,1.05.28,1.51,1.47,1.24,1.93-.44,3.89-.73,5.85-1.06q24.82-4.19,49.64-8.37c14.67-2.49,29.33-5,44-7.54,3.62-.62,3.54-.57,3.57-4,0-1.66-.44-1.93-2-1.52a10.31,10.31,0,0,1-11-3.4c-1.82-2-3.27-2.11-5,0-.59.69-1,1.5-1.58,2.23C83.73,49.55,76,51.36,69.67,47.2c-6.84-4.49-6.7-6.14-14.13,1.6-5.25,5.46-10.46,5.94-16.93,2-2-1.25-4.08-2.55-6.2-3.67-3.26-1.72-6.51-1.84-9.53.61-1.29,1.05-2.55,2.12-3.8,3.2-3.3,2.85-6.64,5.42-11.47,5-1.34-.11-2.83-2.12-3.86-.42-.66,1.1-.17,2.91-.19,4.4C3.56,60.21,3.56,60.54,3.57,60.87Z"/></g></g></g></svg>