<svg xmlns="http://www.w3.org/2000/svg" viewBox="0 0 52.17 77.27"><defs><style>.cls-1{fill:#cbbc8f;}</style></defs><g id="Layer_2" data-name="Layer 2"><g id="Layer_1-2" data-name="Layer 1"><path class="cls-1" d="M38.38,11.49a1,1,0,0,0,1.19-.75C40.28,7.23,43,7.28,45.8,7.26c7,0,6.32-.15,6.37,6.25,0,2.75-.05,5.28-3.55,6.1-1.26.29-.77,1.48-.82,2.31-.17,2.62-1.49,4.26-4.25,4.15C41.17,26,41,27.09,41,29,41,40,40.71,51.12,41.1,62.16c.24,6.83-1.59,12.06-8.19,15.11H19.25c-1.88-1.55-4.4-2.27-5.85-4.44a12.64,12.64,0,0,1-2.25-7.34c0-12.07,0-24.14.06-36.21,0-2.13-.22-3.35-2.91-3.25s-3.82-1.67-3.91-4.11c0-1.1.17-2.19-1.41-2.56C.67,18.83,0,17.12,0,15,.13,6.29-1.33,7.29,8.54,7.3c1.06,0,2.53.27,2.75,1.09,1.06,3.93,5,2.72,7.51,4.32C16.29,8.89,18.42,6.5,21,4.06c5.79-5.41,4.32-5.41,10.1,0M22.58,34.62c0,9.12,0,17.75,0,26.39a18.81,18.81,0,0,1-.22,3,1.47,1.47,0,0,1-2.78.12,9.75,9.75,0,0,1-.29-2.65c0-9.36-.06-18.72,0-28.08,0-2-.15-3.08-2.74-3.1-2.91,0-2.16,1.76-2.17,3.2,0,9.06.27,18.12-.08,27.17-.47,11.79,3.49,14.09,14.36,13.56,5.47-.28,9-3.37,9.06-8.65.12-11.07,0-22.14.08-33.2,0-2-1-2-2.46-2s-2.58.06-2.5,2c.14,3.62,0,7.24,0,10.86s0,7.25,0,10.87c0,1.26,0,2.75-1.56,2.82-1.93.08-1.7-1.63-1.75-2.9,0-1,0-2,0-3V34.62C26.09,37.06,26.09,37.06,22.58,34.62ZM33,18.1a6.45,6.45,0,0,0-.81-1C30,15,28.71,12.84,30.83,10c.61-.83.07-1.5-.56-2.09-1-1-2.1-1.94-3.06-3C26.4,4,25.76,4,25,4.89A21.92,21.92,0,0,1,22.78,7c-1.35,1.14-2.19,2.11-.86,4s.46,3.77-1.15,5.12c-1.8,1.51-2.1,2.67-.11,4.31s2.42,3.69.91,5.91c-.43.63-.76,1.32-.18,1.92,1.41,1.45,2.7,3.38,4.46,4.05,1.47.56,2.41-1.77,3.61-2.78.94-.78,2.33-1.53,1.15-3.19C29,24,29.81,22,31.68,20.22,32.25,19.67,33,19.23,33,18.1ZM6,10.78c-.58.26-2.53-1-2.52.94,0,1.7-1.5,4.14,1.68,5a3.14,3.14,0,0,1,2.45,3.13c0,2.24.62,3.5,3.3,3.18A3.09,3.09,0,0,1,14,25.11c.47,1.16.62,2.18,2.37,2.12s1.46-1.45,2.13-2.2c1.06-1.21.09-2-.72-2.77C16.22,20.7,15,19.08,16,16.66c.51-1.24-.2-1.79-1.57-1.76-1.94,0-4-.31-4.62-2.29S8.13,10.37,6,10.78Zm39.85-.19c-1,.42-2.6-.74-3.1,1.09-.68,2.47-2.58,3.17-4.94,3.25-.75,0-2.13-.15-1.72,1,1.13,3.13-.48,5-2.47,7.16-1.35,1.44.34,2.94,1.22,3.8a1.83,1.83,0,0,0,3-1.11c.5-2.06,2.08-3,4.16-2.83,1.68.12,2.41-.33,2.36-2.11s.61-3.62,2.75-4.23c3-.84,1.44-3.17,1.53-4.79C48.81,9.83,46.85,11,45.86,10.59Z"/><path class="cls-1" d="M32.88,62.47c.17-1-.16-2.2-1.5-2.35s-1.77,1.05-1.78,2.21,0,2.67,1.62,2.7C32.58,65.05,33,63.87,32.88,62.47Z"/><path class="cls-1" d="M32.88,62.47c.09,1.4-.3,2.58-1.66,2.56-1.65,0-1.63-1.5-1.62-2.7s.29-2.39,1.78-2.21S33.05,61.42,32.88,62.47Z"/></g></g></svg>