<svg xmlns="http://www.w3.org/2000/svg" viewBox="0 0 67.88 152.7"><defs><style>.cls-1{fill:#cbbc8f;}</style></defs><g id="Layer_2" data-name="Layer 2"><g id="Layer_1-2" data-name="Layer 1"><g id="QRddQe.tif"><path class="cls-1" d="M54,152.67l-8.6,0H35.59c-.62,0-.82-.13-1.23-2.18-1.81,1.34-1.34,2.18-2.15,2.18H14.49l-.19,0a1.15,1.15,0,0,0,0-.26c-.25-1.72-.52-3.43-.78-5.15-.23-1.56-.44-3.12-.68-4.68-.28-1.9-.59-3.81-.88-5.71-.21-1.32-.42-2.64-.61-4s-.37-2.57-.56-3.85-.4-2.65-.59-4-.39-2.56-.58-3.84-.36-2.61-.55-3.9c-.24-1.58-.51-3.15-.74-4.72s-.45-3.2-.69-4.8c-.28-1.91-.58-3.82-.88-5.72-.21-1.32-.42-2.64-.62-4-.23-1.6-.45-3.21-.68-4.81S5,90.24,4.73,88.68,4.25,85.58,4,84c-.21-1.36-.4-2.73-.61-4.1-.23-1.56-.46-3.12-.7-4.68-.29-1.92-.55-3.85-.9-5.76H66.2c.22,0,.31.07.27.3-.21,1.25-.43,2.51-.62,3.77-.35,2.39-.59,4.81-1.12,7.18-.17,2.3-.62,4.57-1,6.86-.24,1.59-.44,3.19-.68,4.79s-.54,3.14-.74,4.72c-.23,1.9-.58,3.77-.81,5.67-.27,2.14-.69,4.27-1,6.4-.29,1.92-.52,3.84-.8,5.76s-.61,3.9-.9,5.85c-.23,1.53-.44,3.07-.67,4.61-.29,1.92-.61,3.83-.9,5.75-.24,1.58-.45,3.16-.69,4.74-.29,1.91-.6,3.82-.9,5.73-.21,1.33-.42,2.66-.61,4s-.37,2.58-.57,3.86C54.31,150.53,54.13,151.6,54,152.67Z"/><path class="cls-1" d="M41.2,0l1.69,2.16c.17.21.26.33-.06.59-1.69,1.39-3.32,2.85-5,4.27-1,.86-2,1.7-3.06,2.55a1.07,1.07,0,0,0-.43.88q0,24.41,0,48.81c0,.44.1.61.57.59.87,0,1.73,0,2.59,0,.68,0,1.33.17,2,.13,3.79-.24,7.59,0,11.38-.15,3.12-.15,6.24,0,9.37-.1a7.66,7.66,0,0,1,7.57,6.05l0,0v1.32c-12.3,0-24.61.11-36.91,0C20.87,67,10.78,67.08.69,67c-.56,0-.77,0-.66-.74A7.43,7.43,0,0,1,2.4,61.63a7.61,7.61,0,0,1,4.94-2.05h.84c6.49-.07,13,.2,19.47.16,1.11,0,2.23,0,3.34.11.55,0,.68-.15.68-.68q0-13.64,0-27.29c0-7.49,0-15,0-22.49a2.56,2.56,0,0,1,1.12-2.17c1.17-1,2.32-2,3.47-3L40.5.59A8.35,8.35,0,0,0,41.1,0Z"/></g></g></g></svg>