<svg xmlns="http://www.w3.org/2000/svg" viewBox="0 0 22 22"><defs><style>.cls-1{fill:#cebc89;}</style></defs><g id="Layer_2" data-name="Layer 2"><g id="Layer_1-2" data-name="Layer 1"><g id="Mask_Group_1" data-name="Mask Group 1"><path id="facebook-square-brands" class="cls-1" d="M19.64,0H2.36A2.36,2.36,0,0,0,0,2.36H0V19.64A2.36,2.36,0,0,0,2.36,22H9.1V14.52H6V11H9.1V8.32c0-3.06,1.82-4.74,4.6-4.74a18,18,0,0,1,2.73.24v3H14.89a1.76,1.76,0,0,0-2,1.51,1.7,1.7,0,0,0,0,.39V11h3.38l-.54,3.52H12.9V22h6.74A2.36,2.36,0,0,0,22,19.65h0V2.36A2.36,2.36,0,0,0,19.64,0Z"/></g></g></g></svg>