<svg xmlns="http://www.w3.org/2000/svg" viewBox="0 0 79.51 37.96"><defs><style>.cls-1{fill:#cbbc8f;}</style></defs><g id="Layer_2" data-name="Layer 2"><g id="Layer_1-2" data-name="Layer 1"><path class="cls-1" d="M79.51,20.21c-2.78,3-5,6.49-8.21,9.23-11.44,9.85-24.11,10.62-37.72,5.08a103.53,103.53,0,0,1-17-8.49c-2.62-1.7-4.11-1.36-6.11.75a88.77,88.77,0,0,1-6.94,6A2.47,2.47,0,0,1,1,33.53c-1.13-.41-1-1.41-1-2.31Q0,19,0,6.78c0-.9-.15-1.9,1-2.31a2.49,2.49,0,0,1,2.52.76C5.76,7.15,8.29,8.84,10.22,11c2.28,2.58,4,2.42,6.89.69C25,6.93,33.26,2.88,42.42.84c12-2.67,21.92,1.16,30.41,9.22a98.73,98.73,0,0,1,6.68,7.73ZM3,28.88a49.92,49.92,0,0,0,7.54-6.68c1.6-1.86,3-1.81,5.06-.55A100.16,100.16,0,0,0,39.67,33.13c5.78,1.75,11.6,2.48,17.76.44-2.61-3.09-4.6-6.19-5.29-9.95-.24-1.29-1-2.82.88-3.25s2,1.25,2.27,2.52A16.18,16.18,0,0,0,60,31.19a1.93,1.93,0,0,0,2.68.35,30.31,30.31,0,0,0,7.59-5.66c7.19-8,7.49-6-.19-13.83s-17-10.61-28-7.82c-9.49,2.42-18,6.93-26.18,11.94-2.24,1.38-3.75,1.52-5.53-.58a36.19,36.19,0,0,0-7.28-6.3c.55,2.24-1.38,4.92,2.55,5.14.53,0,.84.84.73,1.49a1.38,1.38,0,0,1-1.46,1.29c-1.35-.05-1.75.5-1.75,1.79s.38,1.85,1.74,1.79a1.38,1.38,0,0,1,1.47,1.28c.11.66-.2,1.47-.73,1.5C1.69,23.77,3.62,26.47,3,28.88Z"/><path class="cls-1" d="M46.67,8.79c-1.13,1.68,1.35,3.89-1,5.39-.48.31.19.63.37.92a3.7,3.7,0,0,1-2,5.6,1.72,1.72,0,0,1-2-.23,1.38,1.38,0,0,1,0-2.14c1-1,.92-1.58,0-2.67-1.31-1.53.18-7.2,1.83-8.32A2,2,0,0,1,46,7C46.8,7.38,46.73,8.12,46.67,8.79Z"/><path class="cls-1" d="M62.46,17.77a3.63,3.63,0,0,1-3.38-3.86c0-2.36,1.63-3.63,3.92-3.84a4.11,4.11,0,0,1,4,4.09A4.19,4.19,0,0,1,62.46,17.77Z"/><path class="cls-1" d="M33,16.88C31.42,19,34.83,22.34,31.09,24c-.89.38-1.6,1.46-2.68.5s-.69-1.81.12-2.6c.62-.6.55-1,.12-1.74-1-1.68.53-4.43,2.44-4.72A1.44,1.44,0,0,1,33,16.88Z"/><path class="cls-1" d="M51.53,16.65c-.13-1.25.45-2.18,1.57-2.19s1.62.89,1.6,2.08-.48,2.08-1.61,2.09A1.54,1.54,0,0,1,51.53,16.65Z"/></g></g></svg>