<svg xmlns="http://www.w3.org/2000/svg" viewBox="0 0 33.18 77.27"><defs><style>.cls-1{fill:#cbbc8f;}</style></defs><g id="Layer_2" data-name="Layer 2"><g id="Layer_1-2" data-name="Layer 1"><path class="cls-1" d="M28.92,43.89c4.37-.7,4.8-.27,3.84,3.7-.57,2.33-1.14,4.68-1.93,6.94-2.18,6.25-5.61,7.9-12.47,5.85,0,2.56,0,5,0,7.47,0,1.23-.05,2.7-1.65,2.76-1.88.06-1.85-1.55-1.86-2.86,0-2.4,0-4.81,0-7.26-7.66,1.79-10.22.4-12.79-6.9a57.79,57.79,0,0,1-1.59-5.8c-1-4.14-.61-4.55,3.78-4C3.5,41.06,2.82,38.37,2,35.7c-.25-.85-.41-1.92.38-2.15,2.91-.83,1.3-2.57,1-4C3,27.81,2.47,26.08,2,24.35c-.35-1.19.13-2.25,1.23-2.35,2.27-.22,1.72-1.35,1.27-2.66a28.84,28.84,0,0,1-.9-3.18c-.88-3.84-.87-3.84,3-4.24C6.12,10.28,5.77,8.61,5.28,7c-.79-2.63.63-3.12,2.77-2.66s4.31,1.16,6.64,1.8C15,4.47,13.55,4,12.87,3.18S11.7,1.44,12.57.52A1.54,1.54,0,0,1,15,.71C16.16,2,17.07,2,18.2.69A1.54,1.54,0,0,1,20.64.54c.76.8.47,1.65-.14,2.44s-2.11,1.38-2.1,3c2,.06,3.7-1,5.55-1.45,3.94-.85,4.69-.18,3.75,3.68-.31,1.24-.74,2.46-1.12,3.71,3.84.36,3.92.43,3.08,4-.46,1.93-1.08,3.82-1.65,5.84,2.9-.16,3.93,1.08,2.9,3.86-.55,1.51-.84,3.1-1.32,4.63-.41,1.3-1.33,2.56,1,3.19.95.25.81,1.4.52,2.37C30.34,38.38,29.69,41,28.92,43.89Zm-5.83,14.2a2.89,2.89,0,0,0,2.45-.91c2.44-2.44,2.8-5.71,3.53-8.81.23-1-.7-.78-1.25-.65a29,29,0,0,0-7.28,2.39,3.93,3.93,0,0,0-2,4.9C19.11,56.86,20.54,58,23.09,58.09Zm-8.32-4.67c.23-.87-.39-1.7-1-2.48-1-1.18-9.06-3.95-9.26-3.28-.77,2.5.76,4.71,1.49,7a5.82,5.82,0,0,0,.79,1.6,4.21,4.21,0,0,0,5.16,1.55A4.09,4.09,0,0,0,14.77,53.42ZM14.18,29a3.64,3.64,0,0,0-.7-.78A20,20,0,0,0,6.86,26c-1-.2-1,.52-.78,1.11.61,2,.92,4.11,2.17,5.86C9,34,10.43,35.24,11.5,34.15,12.76,32.85,13.27,30.85,14.18,29Zm13-2c.1-.79-.1-1.2-.79-1-2.38.54-5.08.74-6.79,2.47-1.48,1.5.88,2.72,1.35,4.12.73,2.23,2.19,2.53,3.65.88C26.21,31.57,26.43,29.08,27.14,27ZM5.7,36.69c.84,2.94,1.19,5.43,2.67,7.52.58.83,1.64,1.94,2.57.66,3.48-4.79,3-6-2.95-7.54Zm21.64.05c-.91.24-1.38.4-1.86.49-1.82.35-4.05.6-5.06,1.89-1.22,1.55,1.16,3,1.53,4.62.12.54-.18,1.57.86,1.64A2.35,2.35,0,0,0,25,44,22.43,22.43,0,0,0,27.34,36.74ZM25.85,16A19.48,19.48,0,0,0,20,17.87c-.67.36-1.75.76-1,1.73,1,1.29.76,3.69,2.83,3.84s2.71-1.89,3.28-3.43A7.08,7.08,0,0,0,25.85,16Zm-17.71.16c-1.05-.37-1,.35-.88.93a13.51,13.51,0,0,0,2.22,5.5c.54.7,1.61,1.37,2.41.87,1.41-.88,1.65-2.65,2.44-4,.47-.81-.43-1.17-1-1.5A17.73,17.73,0,0,0,8.14,16.13Zm8.37,25.05c-.72,2-3.59,3.58-1.52,6a2,2,0,0,0,3.23,0C20.15,44.73,17.56,43.15,16.51,41.18ZM9.3,8c-.44,1.31.31,2.28.65,3.26s.71,2.43,2.13,2.18,1.49-1.8,1.91-2.82c.6-1.43-1-1.42-1.83-1.8A17.92,17.92,0,0,0,9.3,8Zm14.94-.1a17.23,17.23,0,0,0-3.06.85c-.8.41-2.49.38-2,1.72.38,1.08.52,2.83,2.08,3,1.36.14,1.64-1.34,2.08-2.3A24,24,0,0,0,24.24,7.88ZM16.51,31.49c-.7,2-2.34,3.11-1.11,4.6.41.49,2.09.57,2.5-.09C18.84,34.5,17.45,33.37,16.51,31.49Z"/><path class="cls-1" d="M18.38,75c-.21,1-.35,2.28-1.82,2.23s-1.69-1.23-1.7-2.35.47-2.09,1.62-2.15C17.86,72.7,18.22,73.85,18.38,75Z"/><path class="cls-1" d="M9.3,8a17.92,17.92,0,0,1,2.86.82c.79.38,2.43.37,1.83,1.8-.42,1-.59,2.59-1.91,2.82s-1.8-1.2-2.13-2.18S8.86,9.29,9.3,8Z"/></g></g></svg>