<svg xmlns="http://www.w3.org/2000/svg" xmlns:xlink="http://www.w3.org/1999/xlink" viewBox="0 0 22 20.01"><defs><style>.cls-1{fill:none;}.cls-2{clip-path:url(#clip-path);}.cls-3{fill:#cebc89;}</style><clipPath id="clip-path" transform="translate(0 0)"><rect class="cls-1" width="22" height="20.02"/></clipPath></defs><g id="Layer_2" data-name="Layer 2"><g id="Layer_1-2" data-name="Layer 1"><g class="cls-2"><g id="Mask_Group_2" data-name="Mask Group 2"><path id="instagram-brands" class="cls-3" d="M11,4.88A5.39,5.39,0,0,0,5.37,10,5.4,5.4,0,0,0,11,15.14,5.4,5.4,0,0,0,16.64,10h0A5.38,5.38,0,0,0,11,4.88Zm0,8.46A3.51,3.51,0,0,1,7.34,10,3.51,3.51,0,0,1,11,6.67,3.52,3.52,0,0,1,14.67,10,3.51,3.51,0,0,1,11,13.34Zm7.19-8.67a1.32,1.32,0,0,1-2.63,0,1.32,1.32,0,0,1,2.63,0Zm3.73,1.21a5.63,5.63,0,0,0-1.77-4.19A6.91,6.91,0,0,0,15.54.07C13.72,0,8.28,0,6.46.07A7,7,0,0,0,1.85,1.68,5.66,5.66,0,0,0,.08,5.88c-.1,1.65-.1,6.6,0,8.25a5.62,5.62,0,0,0,1.77,4.19,6.91,6.91,0,0,0,4.61,1.62c1.82.09,7.26.09,9.08,0a6.86,6.86,0,0,0,4.61-1.62,5.66,5.66,0,0,0,1.77-4.19c.1-1.65.1-6.6,0-8.25Zm-2.34,10a3.57,3.57,0,0,1-2.09,1.9c-1.45.52-4.89.4-6.49.4s-5,.12-6.48-.4a3.54,3.54,0,0,1-2.09-1.9C1.85,14.59,2,11.46,2,10s-.13-4.59.44-5.9a3.54,3.54,0,0,1,2.09-1.9C6,1.68,9.4,1.81,11,1.81s5-.12,6.49.4a3.57,3.57,0,0,1,2.09,1.9c.57,1.32.44,4.44.44,5.9S20.15,14.59,19.58,15.91Z" transform="translate(0 0)"/></g></g></g></g></svg>