<svg xmlns="http://www.w3.org/2000/svg" viewBox="0 0 79.54 40.61"><defs><style>.cls-1{fill:#cbbc8f;}</style></defs><g id="Layer_2" data-name="Layer 2"><g id="Layer_1-2" data-name="Layer 1"><path class="cls-1" d="M79.54,20.39C79.66,33.84,65.49,44.5,51.4,39.23c-4.89-1.84-9.71-3.87-15.22-2.68a56.1,56.1,0,0,0-7.85,2.64C14,44.59-.14,33.72,0,20.26.16,5.67,15.66-4.19,29.37,1.76,34,3.76,38.55,5.3,43.69,4.1a40.59,40.59,0,0,0,6.62-2.41C64.06-4.12,79.54,5.78,79.54,20.39ZM7.15,11.12c3.14-.92,5.67-2.44,6.34-6.23-2.82,1.48-5.26,3-6.78,5.63l-.34.57Zm65.26,0,.78,0-.34-.57c-1.58-2.64-4-4.24-7.09-5.69C67.07,8.41,69.14,10.41,72.41,11.12ZM66,35.55a11.49,11.49,0,0,0,6.8-5.46c.3-.1.55-.29.33-.58-.07-.1-.48,0-.74.07a9.08,9.08,0,0,0-6.57,5.81c-.27,0-.64.14-.39.44S65.9,35.85,66,35.55Zm-58.83-6c-.26,0-.67-.18-.75-.08-.22.3,0,.48.34.58a11.56,11.56,0,0,0,6.8,5.46c.1.3.34.56.57.28s-.12-.4-.39-.44A9,9,0,0,0,7.17,29.59Zm60-8.17a21.59,21.59,0,0,0-.86-7.68c-.28-.84-.55-1.74-1.75-1.82-2.77-.18-5.51-.95-8.31-.34-.58.13-1.65.37-1.64.52.11,1.87.33,3.75.61,5.61.24,1.65,1.63.65,2.47.93s1.83.42,1.95,1.59a1.41,1.41,0,0,1-1.43,1.63c-3.59-.43-3,2.23-3.48,4.16-.63,2.3.21,3.31,2.61,3.22C66.43,28.89,66.65,29.82,67.19,21.42ZM25.47,22c-3.3,0-6.61-.11-9.9.06-1,0-3.21-1.11-3,1.09.17,2-.45,5,2.83,5.56a36,36,0,0,0,6.14.51c2,0,4.33,0,3.33-3.17a1.53,1.53,0,0,1,1-2,1.38,1.38,0,0,1,1.92,1c.24,4.09,2.83,2.7,5.11,2.25,1.2-.23,2.44-.32,3.66-.43,2.52-.23,1.2-2.1,1.47-3.26S37.63,22,36.3,22C32.69,22.09,29.08,22,25.47,22Zm-.27-3.41c3.62,0,7.25,0,10.87,0,.71,0,1.61.4,2-.83.72-2.48-.22-3.87-2.89-4.12A14.6,14.6,0,0,1,31.21,13c-2.12-.83-3-.21-3.21,1.88-.09,1.1-.56,2-1.91,1.85s-1.5-1.4-1.2-2.33c.82-2.59-.78-2.89-2.7-2.9-1.54,0-3.1.29-4.63.16-3.82-.33-4.63,2.06-5.07,4.95-.22,1.46,0,2.18,1.85,2.11C18,18.53,21.58,18.63,25.2,18.63Zm44.52-4.3a19.78,19.78,0,0,1,.55,10.26c-.2,1-.45,2.22,1.39,1.64,2.29-.72,4.78-4.17,4.53-6.28C75.87,17.16,73.05,14.62,69.72,14.33ZM46.57,18.62c1.24,0,2.48,0,3.71,0,.57,0,1.37.18,1.39-.72,0-1.71.21-3.59-.79-5-.85-1.18-2.2.3-3.4.26s-2.23.54-3.32.48c-2.28-.13-2.57.94-2.7,2.88-.17,2.6,1.47,2.06,2.94,2.09Zm0,3.43a12.84,12.84,0,0,1-2.15,0c-2.5-.43-3.15.67-2.95,2.93.12,1.31.34,2,1.88,2a14.15,14.15,0,0,1,4.51.65c3.06,1.15,3.56-.31,3.78-2.8.19-2.1-.09-3.27-2.61-2.82A14.42,14.42,0,0,1,46.59,22.05ZM16.14,8.42c3.21,0,6.25.06,9.28,0,1.87-.05,2-1.89,2.48-3s-1.14-1.08-1.81-1.31C21.73,2.59,18.83,3.82,16.14,8.42Zm47.48,0C60.3,3.69,58,2.69,53.87,4c-.85.27-2.73,0-2.13,1.59.44,1.14.61,3,2.9,2.85C57.48,8.24,60.34,8.38,63.62,8.38Zm0,23.92H55c-.2,0-.41,0-.61,0-2.16,0-2.21,1.93-2.72,3.09s1.18,1,1.89,1.25C57.88,38,60.17,37.11,63.65,32.3Zm-47.46.09C19.38,37.66,23,38.55,28,35.52c-.62-3-2.57-3.57-5.4-3.19A48.41,48.41,0,0,1,16.19,32.39Zm13.63-1.08c.65,2.35,1.7,3.55,4.22,2.36a7.15,7.15,0,0,1,2.72-.56c1.76-.06,1.23-1.28,1.24-2.17,0-1.38-1.07-.94-1.79-.82C34.09,30.46,32,30.9,29.82,31.31Zm20,0c-2.21-.42-4.31-.86-6.42-1.21-.61-.1-1.55-.54-1.78.49-.15.66-.15,1.9.11,2a23.74,23.74,0,0,0,5.86,1.51C49,34.22,49.26,32.63,49.8,31.33ZM49.73,9.38C49.12,7,48,5.89,45.55,7a6.94,6.94,0,0,1-2.7.56c-1.76,0-1.28,1.21-1.3,2.12,0,1.37,1,1,1.76.88C45.44,10.24,47.55,9.79,49.73,9.38Zm-19.85-.1a14.37,14.37,0,0,0,3.51.77c1.54,0,3.77,2,4.5-.3,1-3.23-2.45-1.86-3.82-2.64C31.86,5.88,30.42,6.73,29.88,9.28ZM4,22.27c.56,1.89,2.14,2.87,3.65,3.81,1.15.73,1.83.42,1.81-1.13C9.39,22,9,21.72,4,22.27Z"/><path class="cls-1" d="M63.61,18.69c-.82.26-1.72.54-1.69,1.7a1.51,1.51,0,0,0,1.59,1.49,1.53,1.53,0,0,0,1.73-1.31C65.42,19.4,64.59,19,63.61,18.69Z"/><path class="cls-1" d="M13.56,35.56a11.61,11.61,0,0,1-6.8-5.47l.41-.5a9,9,0,0,1,6.57,5.8Z"/><path class="cls-1" d="M72.8,30.09A11.49,11.49,0,0,1,66,35.55l-.18-.16a9.08,9.08,0,0,1,6.57-5.81Z"/><path class="cls-1" d="M72.41,11.12c-3.27-.71-5.34-2.71-6.65-6.29,3.12,1.45,5.51,3.05,7.09,5.69Z"/><path class="cls-1" d="M7.15,11.12l-.78,0,.34-.57Z"/><path class="cls-1" d="M13.74,35.39c.27,0,.64.14.39.44s-.47,0-.57-.27Z"/><path class="cls-1" d="M72.39,29.58c.26,0,.67-.17.74-.07"/><path class="cls-1" d="M63.61,18.69c1,.35,1.81.71,1.63,1.88a1.53,1.53,0,0,1-1.73,1.31,1.51,1.51,0,0,1-1.59-1.49C61.89,19.23,62.79,19,63.61,18.69Z"/></g></g></svg>