<svg xmlns="http://www.w3.org/2000/svg" viewBox="0 0 56.89 77.25"><defs><style>.cls-1{fill:#cbbc8f;}</style></defs><g id="Layer_2" data-name="Layer 2"><g id="Layer_1-2" data-name="Layer 1"><path class="cls-1" d="M23.05,15.25c1-.45,1.48-3.78-.64-5.29-3.26-2.31-2.05-5.59-2.14-8.59A1.34,1.34,0,0,1,21.65,0a1.44,1.44,0,0,1,1.67,1.4c.1,1.09,0,2.21.06,3.31.09,2.51,1.58,3.81,4,3.36,1-.19,1.85.34,2.71.25a3.22,3.22,0,0,0,3.16-3.61c0-1.11,0-2.22.05-3.32A1.44,1.44,0,0,1,35,0a1.33,1.33,0,0,1,1.37,1.36c-.08,3,1,6.18-2.11,8.63-2.1,1.64-1.6,4.63.64,6.08s2.74,3.35,2.77,5.72c0,1.34-.7,3.54.55,3.86,2.06.52,4.49.86,6.6-.32,1-.55,1.85-1.28,2.8-1.94-5-3.52-6.1-12-2.33-16.73a5.75,5.75,0,0,1,9.62.43c2.56,4.07,2.28,8.43,1,12.81a2.38,2.38,0,0,1-1,1.48c-2,1-3.26,2.76-4.82,4.23-2.69,2.53-5.83,4.06-9.77,3.44-1.21-.2-2.42-.3-2.38,1.7,0,1.83,1,2,2.33,1.77,4.07-.73,7.15,1.1,10.09,3.46.84.67,1.59,1.28,1.51,2.45s.42,2.89-1.4,3.24-1.66-1.18-2-2.34c-.78-2.51-7.14-4.86-9.61-3.59-1.31.69-.47,2-.6,3-.17,1.33.94,1.13,1.69,1a10.17,10.17,0,0,1,9.28,3.43,8.39,8.39,0,0,1,2.67,7.26c-.12,1.21,0,2.61-1.77,2.59-1.61,0-1.75-1.42-1.55-2.44.58-3.11-1.41-4.82-3.4-6.61A3.61,3.61,0,0,0,43,43c-4.3-.46-4.8-.16-5.26,4.1-.57,5.29-.94,10.61-1.57,15.9a2.21,2.21,0,0,0,1.47,2.73A9,9,0,0,1,42,77.25H39.51c-7.45-4.18-14.9-4-22.36,0H14.67A9,9,0,0,1,19,65.72c.89-.47,1.76-.64,1.58-2.1-.71-5.79-1.15-11.61-1.85-17.39-.13-1,.45-2.89-1-3.06-1.94-.21-4.17-.88-5.94.67-2.07,1.81-4.29,3.53-3.64,6.8.2,1,0,2.42-1.56,2.44-1.79,0-1.7-1.37-1.76-2.6-.29-6.1,4.27-10.77,10.7-10.6,2.43.06,3.34-.58,3-2.94-.12-.85-.38-1.13-1.28-1.27-4.47-.69-7.62.9-9.21,4.86a1.58,1.58,0,0,1-1.53,1.21A1.4,1.4,0,0,1,4.9,40.53C4.7,39,4.32,37.39,6,36.16c3-2.2,5.91-4.44,10-3.62.4.08.83,0,1.24,0,1.51.13,1.25-.94,1.34-1.8.1-1,0-1.87-1.39-1.73-5.5.57-8.75-2.49-12.89-5.66-5.26-4-4.47-8.17-4-13a7.86,7.86,0,0,1,1-2.5A5.83,5.83,0,0,1,6.59,4.28C9.22,4.22,11,5.74,12.14,8c2,3.83,1.62,7.79.63,11.75-.46,1.84-2.17,2.57-3.73,3.36C11.09,26,14.1,26,17.24,26m5,4.7h-.1c-.14,2.7-.23,5.41-.43,8.12-.09,1.12.14,1.65,1.44,1.63,3.41-.06,6.82-.07,10.22,0,1.44,0,1.66-.53,1.61-1.79-.24-5.41-.42-10.83-.51-16.26-.05-2.66-1-4.22-4-3.87a20.89,20.89,0,0,1-4.33,0c-2.9-.28-3.9,1.15-3.86,3.72C22.26,25,22.23,27.84,22.23,30.65Zm6.32,37.48c-2,0-3.91,0-5.87,0a5,5,0,0,0-4.23,2.06c-.6.75-1.13,1.75-.69,2.49.57,1,1.61.24,2.4-.08,5.29-2.08,10.55-2.89,15.93-.19.79.4,2.1,1.37,2.74.35s-.23-2.27-1.13-3.15a4.83,4.83,0,0,0-3.59-1.48C32.26,68.16,30.41,68.14,28.55,68.13ZM48.23,8.52c-2.61,3.68-2,6.85-1.17,9.92.48,1.67,4.46,1.88,5.61.44,1.58-2,.91-8.1-1.18-9.94,0,1.89,0,3.68,0,5.47,0,.93-.21,1.89-1.45,1.95s-1.79-.78-1.8-1.93C48.22,12.72,48.23,11,48.23,8.52ZM8.36,9.16c0,1.49,0,3,0,4.46,0,1.2.05,2.65-1.66,2.71S4.94,15,4.89,13.74c0-1.41,0-2.82,0-4.23-2.43,2.86-1.71,5.93-1.1,8.91.31,1.47,1.87,1.33,3.11,1.32s2.44,0,2.77-1.38C10.42,15.24,11,12.09,8.36,9.16Zm20,34.31c-1.54,0-3.08,0-4.62,0-.72,0-1.76-.37-1.72,1,0,.87.17,1.59,1.25,1.7a51.28,51.28,0,0,0,10.14,0c1.08-.11,1.24-.81,1.27-1.69.05-1.37-1-1-1.7-1C31.42,43.44,29.88,43.47,28.34,43.47Zm.18,6c-1.44,0-2.87,0-4.3,0-.76,0-1.75-.29-1.59,1.08.1.9,0,1.87,1.37,1.88h8.6c1.32,0,1.32-.9,1.44-1.82.18-1.34-.73-1.14-1.53-1.15Zm0,6.17H24.85c-.8,0-1.68-.25-1.61,1.08.06,1.09.11,1.93,1.63,1.87,2.36-.09,4.73-.07,7.09,0,1.38,0,1.36-.77,1.46-1.72.11-1.19-.51-1.3-1.47-1.24C30.82,55.69,29.69,55.64,28.56,55.65ZM28.63,62c-.92,0-1.85,0-2.77,0s-1.92-.49-2,1.08c0,1.35.61,1.72,1.84,1.69,1.74,0,3.48,0,5.22,0,1.27,0,1.84-.42,1.81-1.73-.05-1.6-1.22-1-2-1A19.28,19.28,0,0,0,28.63,62Zm1-48.76c-.07-.69.07-1.75-1.26-1.79-1.55-.05-1.34,1.14-1.43,2.1s.08,1.67,1.42,1.65S29.69,14.27,29.67,13.21Z"/><path class="cls-1" d="M17.15,77.25c7.46-4,14.91-4.18,22.36,0Z"/><path class="cls-1" d="M29.67,13.21c0,1.06.2,1.94-1.27,2s-1.51-.63-1.42-1.65-.12-2.15,1.43-2.1C29.74,11.46,29.6,12.52,29.67,13.21Z"/><path class="cls-1" d="M33.27,32.91c0,1.49,0,2.6,0,3.71a1.57,1.57,0,0,1-3.14.07c-.14-2.51-.35-5-.42-7.53a1.73,1.73,0,0,1,1.63-1.88c1.12-.06,1.61.88,1.72,1.8C33.23,30.48,33.22,31.89,33.27,32.91Z"/><path class="cls-1" d="M32.79,23.62a1.46,1.46,0,0,1-1.52,1.47c-1.18,0-1.74-.87-1.7-2.06,0-1,.4-1.84,1.53-1.89C32.47,21.09,32.73,22.1,32.79,23.62Z"/></g></g></svg>