<svg xmlns="http://www.w3.org/2000/svg" xmlns:xlink="http://www.w3.org/1999/xlink" viewBox="0 0 22 22"><defs><style>.cls-1{fill:none;}.cls-2{clip-path:url(#clip-path);}.cls-3{fill:#cebc89;}</style><clipPath id="clip-path" transform="translate(0 0)"><rect class="cls-1" width="22" height="22"/></clipPath></defs><g id="Layer_2" data-name="Layer 2"><g id="Layer_1-2" data-name="Layer 1"><g class="cls-2"><g id="Mask_Group_3" data-name="Mask Group 3"><path id="twitter-square-brands" class="cls-3" d="M19.64,0H2.36A2.36,2.36,0,0,0,0,2.36V19.64A2.36,2.36,0,0,0,2.36,22H19.64A2.36,2.36,0,0,0,22,19.64V2.36A2.36,2.36,0,0,0,19.64,0Zm-2.4,7.8c0,.14,0,.28,0,.42a9.1,9.1,0,0,1-9,9.16H8.09a9.24,9.24,0,0,1-4.95-1.44,6.78,6.78,0,0,0,.78,0,6.44,6.44,0,0,0,4-1.37,3.22,3.22,0,0,1-3-2.23,3.54,3.54,0,0,0,1.45-.06A3.22,3.22,0,0,1,3.79,9.14v0a3.19,3.19,0,0,0,1.45.41A3.2,3.2,0,0,1,3.8,6.83,3.24,3.24,0,0,1,4.24,5.2a9.12,9.12,0,0,0,6.64,3.37,3.23,3.23,0,0,1,5.5-2.94,6.46,6.46,0,0,0,2-.77A3.23,3.23,0,0,1,17,6.63a6.33,6.33,0,0,0,1.86-.5A6.94,6.94,0,0,1,17.24,7.8Z" transform="translate(0 0)"/></g></g></g></g></svg>