<svg xmlns="http://www.w3.org/2000/svg" viewBox="0 0 79.62 77.27"><defs><style>.cls-1{fill:#cbbc8f;}</style></defs><g id="Layer_2" data-name="Layer 2"><g id="Layer_1-2" data-name="Layer 1"><path class="cls-1" d="M18.16,77.27c-2.66-1.22-5.66-1.48-8.29-2.87C-.82,68.76-3.32,55,4.81,45.39c5.12-6,12.2-9.18,19.93-8.31,10.67,1.21,18.66,6.58,21,17.74C48,65.26,41.18,74.55,29.7,76.63c-.76.14-1.7-.25-2.22.64ZM23.31,74c1-.07,2.66-.12,4.3-.3,7.31-.82,13-5,14.62-10.79a17.45,17.45,0,0,0-6.68-18.48c-1-.69-1.76-1.72-3.3-.19-5.31,5.23-13.15,5.23-18.85.18-.79-.7-1.26-1.07-2.28-.35C2.77,49.88,1,61.12,6.76,67.88,10.85,72.67,16.63,73.73,23.31,74ZM30.05,41.8a16.35,16.35,0,0,0-14.27.09C19.66,45.83,25.47,45.88,30.05,41.8Z"/><path class="cls-1" d="M57.45,0C70.72,0,80.6,9.52,79.54,20.24c-.79,8-5.81,13.82-12.24,18.38-9,6.38-17.76,6.15-25.1-.27s-8.94-17.28-4-26.15C42.73,4,50.11.88,57.45,0ZM54.58,39.88C61.7,39.78,70,34,74.11,26.33c1.56-2.91,2.56-5.95,2.06-9.23C74.75,7.93,64.8,1.51,55.48,3.55c-1.4.31-1.43,1-1.46,2.1-.21,7.15-5.68,12.59-13.11,13-1.21.07-1.85.3-2.17,1.53C36.39,29.33,45,40,54.58,39.88ZM40.5,15.44c6.46-.59,10.77-5.18,9.64-9.91A16.16,16.16,0,0,0,40.5,15.44Z"/><path class="cls-1" d="M19.46,71.31c-4.24-.33-8.06-1.73-11-5-.71-.79-1.35-1.67-.3-2.59s1.95-.4,2.69.41c2.41,2.62,5.56,3.64,9,4.07,1.41.19,3.6-.36,3.29,2C22.87,72.23,20.87,71.1,19.46,71.31Z"/><path class="cls-1" d="M8.87,58.72a1.52,1.52,0,0,1-1.43,1.87,1.54,1.54,0,0,1-1.73-1.66c0-1.13.25-2.11,1.58-2.13C8.38,56.79,8.88,57.59,8.87,58.72Z"/></g></g></svg>